{
  "accessors": [
    {
      "bufferView": 2,
      "componentType": 5126,
      "count": 36,
      "max": [0.866025447845459, 1.0, 1.0],
      "min": [-0.866025447845459, -1.0, -1.0],
      "type": "VEC3"
    },
    {
      "bufferView": 2,
      "byteOffset": 432,
      "componentType": 5126,
      "count": 36,
      "max": [0.9844676852226257, 1.0, 0.8525741100311279],
      "min": [-0.9844676852226257, -1.0, -0.8525741100311279],
      "type": "VEC3"
    },
    {
      "bufferView": 1,
      "componentType": 5126,
      "count": 36,
      "max": [1.0, 0.9900000095367432],
      "min": [-8.940696716308594e-8, 0.0],
      "type": "VEC2"
    },
    {
      "bufferView": 0,
      "componentType": 5125,
      "count": 60,
      "type": "SCALAR"
    },
    {
      "bufferView": 2,
      "byteOffset": 864,
      "componentType": 5126,
      "count": 170,
      "max": [1.0192334651947021, 1.2347564697265625, 1.1769092082977295],
      "min": [-1.0192334651947021, -1.0686894655227661, -1.176909327507019],
      "type": "VEC3"
    },
    {
      "bufferView": 2,
      "byteOffset": 2904,
      "componentType": 5126,
      "count": 170,
      "max": [1.0, 0.998360276222229, 0.8948334455490112],
      "min": [-1.0, -1.0, -0.8660256266593933],
      "type": "VEC3"
    },
    {
      "bufferView": 1,
      "byteOffset": 288,
      "componentType": 5126,
      "count": 170,
      "max": [1.0, 0.9900000095367432],
      "min": [-8.940696716308594e-8, 0.0],
      "type": "VEC2"
    },
    {
      "bufferView": 0,
      "byteOffset": 240,
      "componentType": 5125,
      "count": 300,
      "type": "SCALAR"
    },
    {
      "bufferView": 2,
      "byteOffset": 4944,
      "componentType": 5126,
      "count": 116,
      "max": [1.0192333459854126, 1.2137045860290527, 1.1727921962738037],
      "min": [-1.0192334651947021, -1.0, -1.176909327507019],
      "type": "VEC3"
    },
    {
      "bufferView": 2,
      "byteOffset": 6336,
      "componentType": 5126,
      "count": 116,
      "max": [1.0, 0.98892742395401, 0.8660991191864014],
      "min": [-0.9999569654464722, -1.0, -0.8708234429359436],
      "type": "VEC3"
    },
    {
      "bufferView": 1,
      "byteOffset": 1648,
      "componentType": 5126,
      "count": 116,
      "max": [1.0, 0.9900000095367432],
      "min": [-8.940696716308594e-8, 0.0],
      "type": "VEC2"
    },
    {
      "bufferView": 0,
      "byteOffset": 1440,
      "componentType": 5125,
      "count": 204,
      "type": "SCALAR"
    },
    {
      "bufferView": 2,
      "byteOffset": 7728,
      "componentType": 5126,
      "count": 108,
      "max": [1.020728588104248, 1.6217350959777832, 1.1769092082977295],
      "min": [-1.0192334651947021, -1.0, -1.176909327507019],
      "type": "VEC3"
    },
    {
      "bufferView": 2,
      "byteOffset": 9024,
      "componentType": 5126,
      "count": 108,
      "max": [0.9999321103096008, 0.9895728230476379, 0.8666275143623352],
      "min": [-0.9999986290931702, -1.0, -0.8689189553260803],
      "type": "VEC3"
    },
    {
      "bufferView": 1,
      "byteOffset": 2576,
      "componentType": 5126,
      "count": 108,
      "max": [1.0, 0.9900000095367432],
      "min": [-8.940696716308594e-8, 0.0],
      "type": "VEC2"
    },
    {
      "bufferView": 0,
      "byteOffset": 2256,
      "componentType": 5125,
      "count": 177,
      "type": "SCALAR"
    },
    {
      "bufferView": 2,
      "byteOffset": 10320,
      "componentType": 5126,
      "count": 72,
      "max": [1.0192334651947021, 1.0, 1.1769092082977295],
      "min": [-1.0192334651947021, -1.0, -1.176909327507019],
      "type": "VEC3"
    },
    {
      "bufferView": 2,
      "byteOffset": 11184,
      "componentType": 5126,
      "count": 72,
      "max": [1.0, 1.0, 0.866025447845459],
      "min": [-1.0, -1.0, -0.8660255074501038],
      "type": "VEC3"
    },
    {
      "bufferView": 1,
      "byteOffset": 3440,
      "componentType": 5126,
      "count": 72,
      "max": [1.0, 0.9900000095367432],
      "min": [-8.940696716308594e-8, 0.0],
      "type": "VEC2"
    },
    {
      "bufferView": 0,
      "byteOffset": 2964,
      "componentType": 5125,
      "count": 132,
      "type": "SCALAR"
    },
    {
      "bufferView": 2,
      "byteOffset": 12048,
      "componentType": 5126,
      "count": 150,
      "max": [1.0192334651947021, 1.0, 1.1769092082977295],
      "min": [-1.0267094373703003, -1.0, -1.176909327507019],
      "type": "VEC3"
    },
    {
      "bufferView": 2,
      "byteOffset": 13848,
      "componentType": 5126,
      "count": 150,
      "max": [0.9999639987945557, 0.99997478723526, 0.8684298396110535],
      "min": [-1.0, -1.0, -0.8673341274261475],
      "type": "VEC3"
    },
    {
      "bufferView": 1,
      "byteOffset": 4016,
      "componentType": 5126,
      "count": 150,
      "max": [1.0, 0.9900000095367432],
      "min": [-8.940696716308594e-8, 0.0],
      "type": "VEC2"
    },
    {
      "bufferView": 0,
      "byteOffset": 3492,
      "componentType": 5125,
      "count": 258,
      "type": "SCALAR"
    }
  ],
  "asset": {
    "extras": {
      "author": "Render Zing (https://sketchfab.com/RenderZing)",
      "license": "CC-BY-4.0 (http://creativecommons.org/licenses/by/4.0/)",
      "source": "https://sketchfab.com/3d-models/low-poly-tree-1-ad78e0142e0c444391757d6db6101c40",
      "title": "Low Poly Tree 1"
    },
    "generator": "Sketchfab-11.79.0",
    "version": "2.0"
  },
  "bufferViews": [
    {
      "buffer": 0,
      "byteLength": 4524,
      "name": "floatBufferViews",
      "target": 34963
    },
    {
      "buffer": 0,
      "byteLength": 5216,
      "byteOffset": 4524,
      "byteStride": 8,
      "name": "floatBufferViews",
      "target": 34962
    },
    {
      "buffer": 0,
      "byteLength": 15648,
      "byteOffset": 9740,
      "byteStride": 12,
      "name": "floatBufferViews",
      "target": 34962
    }
  ],
  "buffers": [
    {
      "byteLength": 25388,
      "uri": "tree.bin"
    }
  ],
  "materials": [
    {
      "doubleSided": true,
      "name": "Material.002",
      "pbrMetallicRoughness": {
        "baseColorFactor": [0.149153, 0.0222567, 0.0103919, 1.0],
        "metallicFactor": 0.0,
        "roughnessFactor": 0.5
      }
    },
    {
      "doubleSided": true,
      "name": "Material.001",
      "pbrMetallicRoughness": {
        "baseColorFactor": [0.0158663, 0.183263, 0.00435843, 1.0],
        "metallicFactor": 0.0,
        "roughnessFactor": 0.5
      }
    }
  ],
  "meshes": [
    {
      "name": "Object_0",
      "primitives": [
        {
          "attributes": {
            "NORMAL": 1,
            "POSITION": 0,
            "TEXCOORD_0": 2
          },
          "indices": 3,
          "material": 0,
          "mode": 4
        }
      ]
    },
    {
      "name": "Object_1",
      "primitives": [
        {
          "attributes": {
            "NORMAL": 5,
            "POSITION": 4,
            "TEXCOORD_0": 6
          },
          "indices": 7,
          "material": 1,
          "mode": 4
        }
      ]
    },
    {
      "name": "Object_2",
      "primitives": [
        {
          "attributes": {
            "NORMAL": 9,
            "POSITION": 8,
            "TEXCOORD_0": 10
          },
          "indices": 11,
          "material": 1,
          "mode": 4
        }
      ]
    },
    {
      "name": "Object_3",
      "primitives": [
        {
          "attributes": {
            "NORMAL": 13,
            "POSITION": 12,
            "TEXCOORD_0": 14
          },
          "indices": 15,
          "material": 1,
          "mode": 4
        }
      ]
    },
    {
      "name": "Object_4",
      "primitives": [
        {
          "attributes": {
            "NORMAL": 17,
            "POSITION": 16,
            "TEXCOORD_0": 18
          },
          "indices": 19,
          "material": 1,
          "mode": 4
        }
      ]
    },
    {
      "name": "Object_5",
      "primitives": [
        {
          "attributes": {
            "NORMAL": 21,
            "POSITION": 20,
            "TEXCOORD_0": 22
          },
          "indices": 23,
          "material": 1,
          "mode": 4
        }
      ]
    }
  ],
  "nodes": [
    {
      "children": [1],
      "matrix": [
        1.0, 0.0, 0.0, 0.0, 0.0, 2.220446049250313e-16, -1.0, 0.0, 0.0, 1.0,
        2.220446049250313e-16, 0.0, 0.0, 0.0, 0.0, 1.0
      ],
      "name": "Sketchfab_model"
    },
    {
      "children": [2],
      "name": "root"
    },
    {
      "children": [3, 5, 7, 9, 11, 13],
      "matrix": [
        1.0, 0.0, 0.0, 0.0, 0.0, 2.220446049250313e-16, 1.0, 0.0, 0.0, -1.0,
        2.220446049250313e-16, 0.0, 0.0, 0.0, 0.0, 1.0
      ],
      "name": "GLTF_SceneRootNode"
    },
    {
      "children": [4],
      "matrix": [
        1.0, 0.0, 0.0, 0.0, 0.0, 1.0, 0.0, 0.0, 0.0, 0.0, 1.0, 0.0, 0.0,
        1.0648362636566162, -0.19414979219436646, 1.0
      ],
      "name": "Cylinder_0"
    },
    {
      "mesh": 0,
      "name": "Object_4"
    },
    {
      "children": [6],
      "matrix": [
        1.6082179546356201, 0.0, 0.0, 0.0, 0.0, 0.9245855808258057, 0.0, 0.0,
        0.0, 0.0, 1.6082179546356201, 0.0, 0.0, 2.39532470703125,
        -0.08242417871952057, 1.0
      ],
      "name": "Cylinder.001_1"
    },
    {
      "mesh": 1,
      "name": "Object_6"
    },
    {
      "children": [8],
      "matrix": [
        0.25923975780123837, -0.10936722344676576, 1.6567809530000268, 0.0,
        -0.02804727932399914, 0.9633402487981175, 0.06798051241509055, 0.0,
        -1.6596700593866804, -0.06633743610876039, 0.2553127631396489, 0.0, 0.0,
        3.5095713138580322, 0.0, 1.0
      ],
      "name": "Cylinder.002_2"
    },
    {
      "mesh": 2,
      "name": "Object_8"
    },
    {
      "children": [10],
      "matrix": [
        -0.0707305233479321, 0.01819893882265458, 1.431036284532704, 0.0,
        0.060421929360860174, 0.8215395530048466, -0.007461357545960077, 0.0,
        -1.4272877165824496, 0.10432025479994643, -0.07187191981690742, 0.0,
        0.0678800642490387, 4.29147481918335, 0.0, 1.0
      ],
      "name": "Cylinder.003_3"
    },
    {
      "mesh": 3,
      "name": "Object_10"
    },
    {
      "children": [12],
      "matrix": [
        -1.1195372683053977, -0.07824941082138011, 0.6759686741888649, 0.0,
        -0.04518021253167806, 0.751751149042337, 0.012194578080970499, 0.0,
        -0.675929421406691, -0.02242163778758303, -1.1220677627784632, 0.0,
        -0.02364102192223072, 5.219221115112305, 0.0, 1.0
      ],
      "name": "Cylinder.004_4"
    },
    {
      "mesh": 4,
      "name": "Object_12"
    },
    {
      "children": [14],
      "matrix": [
        -1.1191550363242786, -0.06747807990927278, -0.13906566716108487, 0.0,
        -0.04318486875803635, 0.7542058045521475, -0.01842148559270475, 0.0,
        0.14036290837909965, -0.01932433949063968, -1.1202181651406395, 0.0,
        -0.09661615639925003, 5.947795391082764, 0.0, 1.0
      ],
      "name": "Cylinder.005_5"
    },
    {
      "mesh": 5,
      "name": "Object_14"
    }
  ],
  "scene": 0,
  "scenes": [
    {
      "name": "Sketchfab_Scene",
      "nodes": [0]
    }
  ]
}
